<svg width="28" height="28" viewBox="0 0 28 28" fill="none" xmlns="http://www.w3.org/2000/svg">
<g clip-path="url(#clip0_3057_1770)">
<path fill-rule="evenodd" clip-rule="evenodd" d="M10.5999 8.12972C10.342 7.55929 10.0706 7.54761 9.82535 7.53778L9.16579 7.52979C8.9362 7.52979 8.56339 7.61553 8.24806 7.95853C7.93272 8.30152 7.04358 9.13012 7.04358 10.8156C7.04358 12.5011 8.27664 14.1297 8.44845 14.3587C8.62025 14.5876 10.8291 18.1565 14.327 19.5297C17.2339 20.6709 17.8252 20.4441 18.4565 20.3869C19.0878 20.3297 20.4926 19.5583 20.7791 18.7583C21.0655 17.9583 21.0658 17.2729 20.9798 17.1297C20.8937 16.9864 20.6644 16.9013 20.3199 16.7298C19.9754 16.5583 18.2838 15.7297 17.9684 15.6154C17.6531 15.5011 17.4238 15.4442 17.1939 15.7869C16.9643 16.1299 16.3054 16.901 16.1047 17.1297C15.904 17.3583 15.7033 17.3869 15.3591 17.2157C15.0148 17.0445 13.9066 16.6825 12.5917 15.5155C11.5689 14.6073 10.8783 13.4861 10.6773 13.1434C10.4763 12.8007 10.6561 12.6151 10.8285 12.4445C10.9828 12.2908 11.1724 12.0444 11.3449 11.8446C11.5173 11.6445 11.5738 11.5016 11.6885 11.2735C11.8031 11.0455 11.7459 10.8448 11.6599 10.6736C11.5738 10.5024 10.9057 8.80741 10.5999 8.12972Z" fill="url(#paint0_linear_3057_1770)"/>
<path d="M27.8148 3.63605H24.3817V0.218384H22.0213V3.63605H18.5883V5.98723H22.0213V9.40489H24.3817V5.98723H27.8148V3.63605Z" fill="url(#paint1_linear_3057_1770)"/>
<path d="M25.0561 10.7725C25.3407 11.7717 25.4922 12.8124 25.4888 13.8699C25.4864 20.1517 20.3513 25.2626 14.0418 25.2626H14.0375C12.2399 25.2616 10.4726 24.8409 8.88182 24.0403C8.65469 23.9259 8.43094 23.8039 8.21119 23.6739L7.7929 23.4271L3.46027 24.5581L4.61681 20.3543L4.3445 19.9234C3.19811 18.1073 2.59141 16.0054 2.59449 13.8604C2.59695 7.57954 7.73204 2.46903 14.0464 2.46903C15.1882 2.46626 16.3125 2.63469 17.3851 2.95986V0.559502C16.3051 0.292728 15.1845 0.154423 14.0424 0.153809C6.45073 0.153809 0.272812 6.30222 0.269431 13.8598C0.266665 16.2651 0.900715 18.6285 2.10796 20.7123L0.15387 27.8147L7.45482 25.9089C9.46638 27.0009 11.7312 27.5766 14.036 27.5775H14.0421C21.6326 27.5775 27.8114 21.4278 27.8148 13.8709C27.8151 12.8142 27.6934 11.7769 27.4611 10.7725H25.0561Z" fill="url(#paint2_linear_3057_1770)"/>
</g>
<defs>
<linearGradient id="paint0_linear_3057_1770" x1="14.037" y1="26.8982" x2="14.037" y2="13.2407" gradientUnits="userSpaceOnUse">
<stop stop-color="#00CC3E"/>
<stop offset="1" stop-color="#01ED5E"/>
</linearGradient>
<linearGradient id="paint1_linear_3057_1770" x1="23.2007" y1="26.8982" x2="23.2007" y2="13.2407" gradientUnits="userSpaceOnUse">
<stop stop-color="#00CC3E"/>
<stop offset="1" stop-color="#01ED5E"/>
</linearGradient>
<linearGradient id="paint2_linear_3057_1770" x1="13.9843" y1="26.8981" x2="13.9843" y2="13.2407" gradientUnits="userSpaceOnUse">
<stop stop-color="#00CC3E"/>
<stop offset="1" stop-color="#01ED5E"/>
</linearGradient>
<clipPath id="clip0_3057_1770">
<rect width="28" height="28" fill="white"/>
</clipPath>
</defs>
</svg>
